# xmcd
#
# Track frame offsets:
#	150
#	8902
#	20035
#	30870
#	40846
#	53207
#	66713
#	75093
#	84817
#	93975
#
# Disc length: 1410 seconds
#
# Revision: 0
# Processed by: cddbd v1.5.2PL0 Copyright (c) Steve Scherf et al.
# Submitted via: audiograbber 1.83.01
#
DISCID=6905800a
DTITLE=Various Artist - Rockers 2005
DYEAR=1900
DGENRE=
TTITLE0=Premiers - Run Along Baby
TTITLE1=Buster Brown - Sugar Babe
TTITLE2=Howard Tate - Baby I Love You
TTITLE3=Howard Tate - Look At Granny Run
TTITLE4=Spotlighters - Bam Jingle Jingle
TTITLE5=Jesse Stone Orchestra - Cole Slaw
TTITLE6=Merced Blue Notes - Mama Rufus
TTITLE7=Roy Lee Johnson - Boogaloo #3
TTITLE8=Buena Vistas - Foxy
TTITLE9=Rocky Gil And The Bishops - Soul Party
EXTD=
EXTT0=
EXTT1=
EXTT2=
EXTT3=
EXTT4=
EXTT5=
EXTT6=
EXTT7=
EXTT8=
EXTT9=
PLAYORDER=
